@startuml

skinparam class {
BackgroundColor<<Product>> Wheat
BorderColor<<Product>> Tomato
}

class BiDirSimpleBandwidth {

}

BiDirSimpleBandwidth *-->"1" InformationRate : downstream
BiDirSimpleBandwidth *-->"1" InformationRate : upstream



class FourOctetInteger {

}




class InformationRate {

    irValue: number
    irUnits: InformationRateUnits
}




class InternetAccess<<Product>> {
    variant*: InternetAccessVariantName
    deliveryMechanism*: InternetAccessDeliveryMechanism
    providerIndependentIpAddresses: EnabledDisabled
    ipAddressType: InternetAccessIpAddressType
}

InternetAccess *-->"*" SubUnit : demarcationPoint
InternetAccess *--> InternetAccessServiceAccessInterfaceType : serviceAccessInterfaceType
InternetAccess *--> VlanIdOrUntagged : vlan
InternetAccess *-u->"1" InternetAccessFeatures : features
InternetAccess *-->"1" BiDirSimpleBandwidth : bandwidth
InternetAccess *--> BiDirSimpleBandwidth : guaranteedBandwidth
InternetAccess *--> InternetAccessBillingModel : billingModel
InternetAccess *--> InternetAccessLocalNetworkAddresses : localNetworkAddresses
InternetAccess *--> InternetAccessAutonomousSystemNumber : autonomousSystemNumber
InternetAccess *--> InternetAccessPublicAddressesPrefixLength : publicAddressesPrefixLength
InternetAccess *--> InternetAccessPublicAddressBlock : publicAddressBlock
InternetAccess *--> InternetAccessTransitAddresses : transitAddresses


class InternetAccessAutonomousSystemNumber {

    asnType*: AsnType
}

InternetAccessAutonomousSystemNumber *--> FourOctetInteger : asnId


class InternetAccessBillingModel {

    billingModelType*: InternetAccessBillingModelType
    billingModelPlanName*: string
}



class InternetAccessDhcpStaticListEntry {

    staticMACAddress: string
    staticIpAddress: Ipv4OrIpv6Address
}


class InternetAccessFeature {

    isSupported*: boolean
    isEnabled*: boolean
}



class InternetAccessFeatureAssistance {

    assistanceLevel*: InternetAccessAssistanceLevel
    simpleRequestsPerMonth: integer
    complexRequestsPerMonth: integer
}
InternetAccessFeature <|-u- InternetAccessFeatureAssistance



class InternetAccessFeatureCloudPrioritization {

    cloudServiceProvider*: string[]
}
InternetAccessFeature <|-u- InternetAccessFeatureCloudPrioritization



class InternetAccessFeatureDedicatedFirewall {

    firewallCapability*: InternetAccessFirewallCapability
}
InternetAccessFeature <|-u- InternetAccessFeatureDedicatedFirewall



class InternetAccessFeatureDns {

    searchDomain: string[]
}
InternetAccessFeature <|-u- InternetAccessFeatureDns



class InternetAccessFeatureLayer3Resiliency {

    layer3Resiliency*: InternetAccessLayer3Resiliency
}
InternetAccessFeature <|-u- InternetAccessFeatureLayer3Resiliency



class InternetAccessFeatureMobileBackup {

}
InternetAccessFeature <|-u- InternetAccessFeatureMobileBackup

InternetAccessFeatureMobileBackup *-->"1" BiDirSimpleBandwidth : minimumExpectedBandwidth


class InternetAccessFeatureMonitoring {

    monitoringType*: InternetAccessMonitoringType
}
InternetAccessFeature <|-u- InternetAccessFeatureMonitoring



class InternetAccessFeatureRouting {
    bgp: InternetAccessBgp
    static: Static 
    routingType*: InternetAccessRoutingType
}
InternetAccessFeature <|-u- InternetAccessFeatureRouting



class InternetAccessFeatures {

}

InternetAccessFeatures *-u-> InternetAccessFeatureAssistance : assistance
InternetAccessFeatures *-u-> InternetAccessFeatureCloudPrioritization : cloudPrioritization
InternetAccessFeatures *-u-> InternetAccessFeature : ddosMitigation
InternetAccessFeatures *-u-> InternetAccessFeatureDedicatedFirewall : dedicatedFirewall
InternetAccessFeatures *-u-> InternetAccessFeatureDns : dns
InternetAccessFeatures *-u-> InternetAccessFeature : facilityDiversity
InternetAccessFeatures *-u-> InternetAccessFeatureLayer3Resiliency : layer3Resiliency
InternetAccessFeatures *-u-> InternetAccessFeatureMobileBackup : mobileBackup
InternetAccessFeatures *-u-> InternetAccessFeatureMonitoring : monitoring
InternetAccessFeatures *-u-> InternetAccessFeature : performanceReporting
InternetAccessFeatures *-u-> InternetAccessFeatureRouting : routing
InternetAccessFeatures *-u-> InternetAccessFeature : snmpRead







class InternetAccessLocalNetworkAddresses {

    lanAddressBlock: string
    dhcpStatus: EnabledDisabled
    dhcpStart: Ipv4OrIpv6Address
    dhcpEnd: Ipv4OrIpv6Address
    natStatus*: EnabledDisabled
    natAddress: Ipv4OrIpv6Address
}

InternetAccessLocalNetworkAddresses *-->"*" InternetAccessDhcpStaticListEntry : dhcpStaticList



class InternetAccessPhysicalInterface {

    physicalLayer*: SaiEthernetPhysicalLayer
    connectorType*: ConnectorType
}



class InternetAccessPublicAddressBlock {

    ipv4*: string
    ipv6*: string
}



class InternetAccessPublicAddressesPrefixLength {

    ipv4*: InternetAccessIpv4PublicAddressesPrefixLength
    ipv6*: InternetAccessIpv6PublicAddressesPrefixLength
}



class InternetAccessServiceAccessInterfaceType {

    resiliency*: InternetAccessResiliency
}

InternetAccessServiceAccessInterfaceType *-->"1..*" InternetAccessPhysicalInterface : physicalInterface


class InternetAccessTransitAddresses {

    requestedIpv4TransitAddressPrefixLength: InternetAccessIpv4TransitAddressPrefixLength
    requestedIpv6TransitAddressPrefixLength: InternetAccessIpv6TransitAddressPrefixLength
    serviceProviderIpv4TransitAddress: string
    serviceProviderIpv6TransitAddress: string
}








class SubUnit {

    subUnitNumber*: string
    subUnitType*: string
}



@enduml
