@startuml
skinparam {
    ClassBorderColor<<ProductSpecification>> FireBrick
}

set namespaceSeparator none

class AlternateProductOfferingProposal {
}

AlternateProductOfferingProposal *-->"1" MEFAlternateProduct : alternateProduct

class MEFAlternateProduct {
    productOffering*: ProductOfferingRef
    productSpecification: ProductSpecificationRef

}
class MEFAlternateProduct {


}

class MEFProductConfiguration {
    @type*: string <<discriminator>>
}

MEFAlternateProduct *-->"1" MEFProductConfiguration : productConfiguration



class MEFProductRefOrValue {

    id: string 
    href: string 
    place: RelatedPlaceRefOrValue
    productOffering: ProductOfferingRef
    productSpecification: ProductSpecificationRef
    productRelationship: ProductRelationshipWithGrouping

   
}

MEFProductRefOrValue *--> MEFProductConfiguration : productConfiguration



class AccessElineOvc <<ProductSpecification>> {
    @type  urn:mef:lso:spec:sonata:access-eline-ovc:v5.0.0:all
    <<... attributes are skipped ...>>
}
MEFProductConfiguration <|-- AccessElineOvc

class CarrierEthernetOperatorUni <<ProductSpecification>> {
    @type = urn:mef:lso:spec:sonata:carrier-ethernet-operator-uni:v5.0.0:all
    <<... attributes are skipped ...>>
}
MEFProductConfiguration <|-- CarrierEthernetOperatorUni




@enduml
