@startuml
skinparam {
    ClassBackgroundColor White
    ClassBorderColor Black
}

class Error400 {

    code*: string 
}
Error <|-- Error400



class Error401 {

    code*: string 
}
Error <|-- Error401



class Error403 {

    code*: string 
}
Error <|-- Error403



class Error404 {

    code*: string 
}
Error <|-- Error404



class Error422 {

    code*: string 
    propertyPath: string 
}
Error <|-- Error422



class Error500 {

    code*: string 
}
Error <|-- Error500



class Error {

    message: string 
    reason*: string 
    referenceError: uri 
}



class FieldedAddress {

    city*: string 
    country*: string 
    locality: string 
    postcode: string 
    postcodeExtension: string 
    stateOrProvince: string 
    streetName*: string 
    streetNr: string 
    streetNrLast: string 
    streetNrLastSuffix: string 
    streetNrSuffix: string 
    streetSuffix: string 
    streetType: string 
}
GeographicAddress <|-- FieldedAddress

FieldedAddress *--> GeographicSubAddress : geographicSubAddress


class FormattedAddress {

    addrLine1*: string 
    addrLine2: string 
    city*: string 
    country*: string 
    locality: string 
    postcode: string 
    postcodeExtension: string 
    stateOrProvince: string 
}
GeographicAddress <|-- FormattedAddress



class GeographicAddressIdentifier {

    externalReferenceId*: string 
    externalReferenceType*: string 
}
GeographicAddress <|-- GeographicAddressIdentifier



class GeographicAddress {

    id: string 
    href: string 
    allowsNewSite: boolean 
    hasPublicSite: boolean 
    @schemaLocation: uri 
    @type*: string 
}

GeographicAddress *--> FieldedAddress : associatedGeographicAddress


class GeographicAddressValidation {

    provideAlternative*: boolean 
    validationResult: MEFValidationResultType 
}

GeographicAddressValidation *-->"*" GeographicAddress : alternateGeographicAddress
GeographicAddressValidation *--> GeographicAddress : bestMatchGeographicAddress
GeographicAddressValidation *-->"1" GeographicAddress : submittedGeographicAddress


class GeographicAddressValidation_Create {

    provideAlternative*: boolean 
}

GeographicAddressValidation_Create *-->"1" GeographicAddress : submittedGeographicAddress


class GeographicSubAddress {

    buildingName: string 
    levelNumber: string 
    levelType: string 
    privateStreetName: string 
    privateStreetNumber: string 
}

GeographicSubAddress *-->"*" MEFSubUnit : subUnit


class MEFGeographicPoint {

    spatialRef*: string 
    x*: string 
    y*: string 
    z: string 
}
GeographicAddress <|-- MEFGeographicPoint



class MEFSubUnit {

    subUnitNumber*: string 
    subUnitType*: string 
}



enum MEFValidationResultType {

    success
    partial
    fail
}
@enduml
