@startuml

class Appointment {

    id*: string
    href: string
    status*: AppointmentStatusType
}

Appointment *-->"*" AttachmentValue : attachment
Appointment *-->"*" Note : note
Appointment *-->"1" RelatedPlaceRefOrQuery : relatedPlace
Appointment *-->"1" TimePeriod : validFor
Appointment *-->"1..*" RelatedContactInformation : relatedContactInformation
Appointment *-->"1" WorkOrderRef : workOrder


class Appointment_Create {

}

Appointment_Create *-->"*" AttachmentValue : attachment
Appointment_Create *-->"*" Note : note
Appointment_Create *-->"1..*" RelatedContactInformation : relatedContactInformation
Appointment_Create *-->"1" TimePeriod : validFor
Appointment_Create *-->"1" WorkOrderRef : workOrder


class Appointment_Find {

    id*: string
    href: string
    status*: AppointmentStatusType
}

Appointment_Find *-->"1" RelatedPlaceRefOrQuery : relatedPlace
Appointment_Find *-->"1" TimePeriod : validFor
Appointment_Find *-->"1" WorkOrderRef : workOrder


class Appointment_Update {

}

Appointment_Update *-->"*" AttachmentValue : attachment
Appointment_Update *-->"*" Note : note
Appointment_Update *--> RelatedPlaceRefOrQuery : relatedPlace
Appointment_Update *-->"*" RelatedContactInformation : relatedContactInformation
Appointment_Update *--> TimePeriod : validFor


class AttachmentValue {

    author*: string
    creationDate*: date-time
    description: string
    mimeType: string
    name*: string
    source*: MEFBuyerSellerType
    url*: string
}

AttachmentValue *--> MEFByteSize : size



class RelatedPlaceRefOrQuery {
    contact: ContactInformation
    place*: PlaceRefOrQuery
    role*: string
    subUnit: SubUnit
}

class RelatedContactInformation {

    role*: string
    number*: string
    emailAddress*: string
    organization: string
    name*: string
    numberExtension: string
    postalAddress: FieldedAddressRepresentation
}





class SearchTimeSlot_Create {

}

SearchTimeSlot_Create *-->"1..*" TimeSlot : requestedTimeSlot
SearchTimeSlot_Create *-->"1" WorkOrderRef : workOrder


class TimeSlot {

}

TimeSlot *-->"1" TimePeriod : validFor


class MEFByteSize {

    amount*: float
    units*: DataSizeUnit
}



class Note {

    author*: string
    date*: date-time
    id*: string
    source*: MEFBuyerSellerType
    text*: string
}



class SearchTimeSlot {

}

SearchTimeSlot *-->"1..*" TimeSlot : availableTimeSlot
SearchTimeSlot *-->"1..*" TimeSlot : requestedTimeSlot
SearchTimeSlot *-->"1" WorkOrderRef : workOrder


class TimePeriod {

    endDateTime*: date-time
    startDateTime*: date-time
}



class WorkOrderRef {

    href: string
    id*: string
}



@enduml
